<?xml version="1.0" standalone="no"?>
<!DOCTYPE svg PUBLIC "-//W3C//DTD SVG 1.1//EN" "http://www.w3.org/Graphics/SVG/1.1/DTD/svg11.dtd" >
<svg>
<metadata>
Created by FontForge 20110222 at Tue Jun 18 20:57:23 2013
 By Orthosie Webhosting
(c) COPYRIGHT H. BERTHOLD AG 1992 Alle Rechte vorbehalten.
</metadata>
<defs>
<font id="AkzidenzGrotConBQ-Bold" horiz-adv-x="396" >
  <font-face 
    font-family="Akzidenz-Grotesk Condensed BQ"
    font-weight="500"
    font-stretch="normal"
    units-per-em="1000"
    panose-1="0 0 0 0 0 0 0 0 0 0"
    ascent="800"
    descent="-200"
    x-height="512"
    cap-height="706"
    bbox="-111 -262 890 919"
    underline-thickness="50"
    underline-position="-75"
    unicode-range="U+0020-FB02"
  />
<missing-glyph horiz-adv-x="250" 
 />
    <glyph glyph-name=".notdef" horiz-adv-x="250" 
 />
    <glyph glyph-name=".null" horiz-adv-x="0" 
 />
    <glyph glyph-name="nonmarkingreturn" horiz-adv-x="333" 
 />
    <glyph glyph-name="space" unicode=" " horiz-adv-x="250" 
 />
    <glyph glyph-name="exclam" unicode="!" horiz-adv-x="229" 
d="M78 706h113v-313l-19 -203h-78l-16 197v319zM75 132h119v-132h-119v132z" />
    <glyph glyph-name="quotedbl" unicode="&#x22;" 
d="M303 434h-23l-39 245q-2 22 0 32q3 14 17 26t37 12q15 0 28 -8q22 -13 20 -50zM115 434h-23l-39 245q-2 22 1 32q3 13 16.5 25.5t36.5 12.5q15 0 28 -8q14 -9 17.5 -19.5t3.5 -30.5z" />
    <glyph glyph-name="numbersign" unicode="#" horiz-adv-x="583" 
d="M559 230h-150l-33 -230h-80l33 230h-111l-32 -230h-82l34 230h-138v77h149l16 107h-141v77h151l31 215h80l-30 -215h110l31 215h78l-29 -215h138v-77h-149l-16 -107h140v-77zM340 307l15 107h-111l-15 -107h111z" />
    <glyph glyph-name="dollar" unicode="$" horiz-adv-x="417" 
d="M188 783h51v-81q51 -7 81 -31q27 -21 39 -53.5t12 -92.5q0 -7 -0.5 -22.5t-0.5 -22.5h-112v66q0 39 -14 53t-38 14q-34 0 -48 -28q-5 -9 -6 -28q0 -3 -0.5 -9t-0.5 -10q0 -31 26 -59l149 -155q18 -18 30 -35q28 -40 28 -113q0 -99 -51 -145q-35 -30 -94 -37v-94h-51v94
q-66 3 -102 35q-24 21 -36 53q-9 24 -10 74v78h111v-79q0 -19 5 -33q13 -33 55 -33q20 0 35 9q25 18 25 76q0 22 -6 39.5t-10 23t-16 18.5l-141 144q-18 18 -32 38q-29 43 -29 100q0 73 32 114q37 46 119 51v81z" />
    <glyph glyph-name="percent" unicode="%" horiz-adv-x="708" 
d="M456 715l63 -23l-265 -737l-64 22zM266 561v-235q-4 -50 -24 -73q-31 -35 -94 -35q-97 0 -117 66q-5 15 -5 44v226q0 33 6 51q22 66 113 66q90 0 113 -59q6 -13 8 -51zM185 325v237v5v5.5t-0.5 6t-1 6.5t-2 6t-3.5 6t-5 4.5t-6.5 4t-9 2.5t-11.5 1q-15 0 -24 -4.5
t-12 -15t-3.5 -14t-0.5 -14.5v-241q2 -29 20 -35q8 -3 20 -3q14 0 24 5q14 8 15 38zM683 337v-235q-2 -45 -23 -71q-30 -37 -95 -37q-74 0 -104 40q-7 7 -13 23q-4 12 -6 47v226q2 37 7 52q9 27 36.5 46t76.5 19q90 0 113 -60q7 -16 8 -50zM602 102v237q0 11 -1 16
q-2 30 -38 30q-44 0 -40 -47v-242q0 -27 18 -34q9 -4 22 -4t23 5q16 8 16 39z" />
    <glyph glyph-name="ampersand" unicode="&#x26;" horiz-adv-x="521" 
d="M390 320h103q-7 -132 -64 -212q13 -15 29 -21t48 -5l-1 -85q-48 -6 -56 -6q-55 0 -92 37q-40 -22 -68 -31t-66 -9q-42 0 -78 13q-57 21 -87.5 70t-30.5 111q0 44 14 79q24 67 109 146q-8 14 -14 26q-38 76 -38 138q0 42 20 79.5t57 54.5q28 13 69 13q37 0 63 -11
q73 -34 73 -116q0 -14 -1.5 -27t-6 -26.5t-7.5 -23t-11.5 -23.5t-12 -20t-15.5 -21.5t-15 -19t-17.5 -20.5t-16.5 -20l92 -180l6 15q14 34 15 95zM299 115l-103 187q-26 -33 -39 -59.5t-13 -59.5q0 -18 6 -36q10 -24 32 -38.5t48 -14.5q34 0 69 21zM229 496q5 7 14 20.5
t13 20.5q19 31 19 53q0 20 -10.5 28.5t-22.5 8.5q-18 -1 -27.5 -16t-9.5 -34q0 -33 24 -81z" />
    <glyph glyph-name="quotesingle" unicode="'" horiz-adv-x="208" 
d="M115 434h-23l-39 245q-2 22 1 32q3 13 16.5 25.5t36.5 12.5q15 0 28 -8q14 -9 17.5 -19.5t3.5 -30.5z" />
    <glyph glyph-name="parenleft" unicode="(" horiz-adv-x="292" 
d="M272 774l-1 -93q-36 -21 -62 -56q-36 -52 -36 -145v-391q0 -70 28 -113q24 -37 71 -71l-1 -87q-34 11 -79 40q-106 66 -130 162q-6 27 -8 79v402q0 78 42 140q46 65 124 108q16 9 52 25z" />
    <glyph glyph-name="parenright" unicode=")" horiz-adv-x="292" 
d="M20 -182l1 93q43 26 68 66q28 47 30 135v391q0 38 -7 64q-10 38 -32 64.5t-60 55.5l1 87q35 -11 79 -40q94 -59 124 -145q12 -35 14 -96v-402q0 -35 -6 -60q-25 -107 -147 -181q-25 -15 -65 -32z" />
    <glyph glyph-name="asterisk" unicode="*" horiz-adv-x="333" 
d="M129 706h73v-100l91 29l23 -66l-91 -32l58 -77l-58 -44l-56 79l-57 -79l-57 39l57 82l-95 27l21 68l91 -26v100z" />
    <glyph glyph-name="plus" unicode="+" horiz-adv-x="500" 
d="M468 251h-179v-180h-79v180h-178v80h178v179h79v-179h179v-80z" />
    <glyph glyph-name="comma" unicode="," horiz-adv-x="187" 
d="M36 129h117v-129l-83 -135h-44l68 135h-58v129z" />
    <glyph glyph-name="hyphen" unicode="-" horiz-adv-x="333" 
d="M33 317h268v-99h-268v99z" />
    <glyph glyph-name="period" unicode="." horiz-adv-x="187" 
d="M35 129h117v-129h-117v129z" />
    <glyph glyph-name="slash" unicode="/" horiz-adv-x="250" 
d="M142 706h98l-129 -706h-99z" />
    <glyph glyph-name="zero" unicode="0" 
d="M366 509v-357q0 -30 -6 -53q-19 -79 -97 -101q-28 -7 -62 -7q-89 0 -132 42q-22 22 -30 49q-9 24 -10 73v344q0 4 0.5 13.5t0.5 14.5q3 56 28 89q44 58 138 58q127 0 160 -89q9 -24 10 -76zM251 151v361q0 32 -4 44q-9 31 -48 31q-59 -1 -54 -70v-374q0 -62 51 -62
q21 0 34 9q19 13 21 61z" />
    <glyph glyph-name="one" unicode="1" 
d="M187 665h78v-665h-117v507q-10 -8 -16 -12q-33 -20 -84 -29l1 92q1 0 9.5 2.5t14.5 5.5q43 16 80 54q13 14 34 45z" />
    <glyph glyph-name="two" unicode="2" 
d="M144 442h-109v81q0 67 32 104q43 47 129 47q122 0 155 -78q3 -9 6 -20.5t4 -20t2 -16.5t1 -9v-88q-3 -45 -9 -63q-6 -19 -25 -43.5t-37 -43.5t-60 -60l-14 -14q-14 -13 -16.5 -16t-13.5 -15t-15 -19t-10 -17t-9 -20q-4 -15 -5 -31h221v-100h-350v16q5 109 34 168
q12 25 30.5 49t31 37t41.5 41l9.5 9.5t12 11.5t9.5 10q43 43 52 64q6 13 8 45v76q-2 36 -17 49q-12 9 -32 9q-18 0 -29 -5q-25 -12 -27 -59v-79z" />
    <glyph glyph-name="three" unicode="3" 
d="M145 466h-110v83q0 31 13 56q35 69 153 69q115 0 149 -75q9 -20 13 -59v-78q0 -1 -0.5 -8.5t-0.5 -9t-0.5 -8t-1 -8.5t-1.5 -7.5t-2.5 -8t-3 -7t-4.5 -8t-6 -6.5q-20 -22 -75 -32q67 -10 84 -36q15 -21 15 -79v-101q-1 -39 -9 -61q-15 -37 -54 -64t-105 -27q-13 0 -28 2
t-43 8.5t-52 25.5t-36 48q-9 20 -11 53v81h115v-71q0 -21 3 -29q12 -29 54 -29q17 0 29 7q19 12 21 47v100q0 1 -0.5 11.5t-0.5 12.5t-1.5 10.5t-3.5 12t-5.5 9.5t-8.5 10q-16 14 -66 16h-24v78h24q46 0 66 21q16 16 16 61v50v4v6t-0.5 7.5t-1.5 8.5t-3 8.5t-5 8t-8 6.5
t-11 5q-12 4 -22 4q-40 0 -49 -32q-2 -7 -2 -17v-69z" />
    <glyph glyph-name="four" unicode="4" 
d="M192 668h139v-449h40v-93h-40v-126h-107v126h-203v93zM224 219l7 331l-112 -331h105z" />
    <glyph glyph-name="five" unicode="5" 
d="M47 665h310v-100h-216l-2 -136q48 35 98 35q54 -1 83.5 -26.5t39.5 -56.5q6 -17 7 -61v-165q-1 -42 -9 -70q-29 -94 -157 -94q-77 0 -121 31q-47 35 -52 116v69h115v-68q0 -18 2 -25q10 -32 49 -32t50 27q5 11 5 28v165q2 51 -23 66q-12 8 -30 8q-40 0 -56 -38
q-6 -14 -8 -29h-92z" />
    <glyph glyph-name="six" unicode="6" 
d="M252 489v36q0 1 -0.5 7t-0.5 8t-0.5 7.5t-1.5 7.5t-2.5 6.5t-3.5 7t-5 5.5t-7 5q-12 6 -30 6q-9 0 -17 -1.5t-13.5 -5t-9.5 -6.5t-7 -8.5t-4.5 -9t-2.5 -10t-1.5 -9t-0.5 -9.5v-6l1 -131q50 41 105 41q52 0 78 -25t33 -55q5 -20 5 -50v-155q0 -45 -9 -68
q-33 -86 -158 -86q-86 0 -132 45q-16 17 -29 46q-8 23 -8 65v383q0 46 21 80q39 64 152 64q40 0 80 -13t58 -42q17 -28 20 -84v-46h-110zM253 142v121q0 47 -19 61q-12 10 -32 10q-17 0 -32 -8q-16 -9 -20.5 -22.5t-4.5 -35.5v-109q2 -48 17 -63q15 -14 40 -14q34 0 46 29
q3 8 5 31z" />
    <glyph glyph-name="seven" unicode="7" 
d="M20 665h359v-99q-18 -30 -26 -46q-51 -91 -86 -212q-50 -167 -49 -308h-125q1 61 23 157q43 190 129 359q5 10 14.5 27t13.5 24h-156v-78h-97v176z" />
    <glyph glyph-name="eight" unicode="8" 
d="M365 243v-90q-1 -43 -8.5 -69.5t-32.5 -49.5q-47 -43 -125 -43q-120 0 -158 82q-11 26 -13 70v85q1 37 4 48q7 31 23 46.5t50 32.5l-6 3q-6 3 -14 7.5t-13 8.5q-35 27 -35 88v70q2 61 26 92q11 15 34 29q38 21 101 21q117 0 150 -76q9 -23 10 -70v-58q-1 -50 -12 -69
q-13 -23 -58 -46q33 -15 47 -27q26 -22 30 -85zM252 143v104v6.5t-0.5 7.5t-1 6.5t-1 7t-1.5 6.5t-2.5 6t-3 5.5t-4.5 6t-6 4.5q-13 9 -33 9q-56 0 -56 -66v-103q4 -42 25 -53q14 -7 29 -7q17 0 31 7l6 4t5 4t3.5 5l2.5 5t2.5 5.5t2 5t1 6t0.5 6t0.5 6.5t0.5 6zM248 459v70
q-2 36 -22 47q-12 7 -28 7q-39 0 -49 -31q-2 -8 -2 -19v-81q1 -28 8 -39q11 -18 44 -18q25 0 37 14q12 13 12 50z" />
    <glyph glyph-name="nine" unicode="9" 
d="M26 179h115v-42q3 -26 4 -31q10 -27 49 -27q45 0 54 33q2 6 2 24v141q-1 -1 -7 -5.5t-9 -6.5t-9.5 -6t-11.5 -6.5t-13 -5.5t-15 -5t-16.5 -3t-19.5 -1q-91 1 -115 69q-7 21 -8 48v164q2 61 22 93q12 21 34 36q43 26 117 26q119 0 153 -74q11 -24 12 -72v-386
q0 -57 -25 -92q-43 -59 -151 -59q-90 0 -131 47q-18 21 -26 47q-3 13 -5 41v53zM250 402v123q-2 40 -21 53q-18 9 -32 9q-56 -1 -56 -69v-116q1 -42 13 -56q13 -15 40 -15q26 0 38 12q18 15 18 59z" />
    <glyph glyph-name="colon" unicode=":" horiz-adv-x="229" 
d="M76 512h120v-131h-120v131zM76 130h120v-130h-120v130z" />
    <glyph glyph-name="semicolon" unicode=";" horiz-adv-x="229" 
d="M75 512h119v-130h-119v130zM75 130h119v-130l-82 -135h-45l71 135h-63v130z" />
    <glyph glyph-name="less" unicode="&#x3c;" horiz-adv-x="500" 
d="M500 68l-500 242v86l500 242v-87l-401 -198l401 -198v-87z" />
    <glyph glyph-name="equal" unicode="=" horiz-adv-x="500" 
d="M500 160h-500v78h500v-78zM500 341h-500v78h500v-78z" />
    <glyph glyph-name="greater" unicode="&#x3e;" horiz-adv-x="500" 
d="M0 68v87l401 198l-401 198v87l500 -242v-86z" />
    <glyph glyph-name="question" unicode="?" horiz-adv-x="417" 
d="M65 463v74q0 45 4 67q8 51 44 81t118 30q75 0 115 -30q19 -13 30 -36q13 -27 13 -89q0 -18 -2 -54q-1 -26 -6 -43t-9.5 -25t-23.5 -37l-50 -73q-37 -52 -41 -81q-2 -12 -2 -35v-22h-113v35q-1 17 1 33q4 33 33 80l66 102q7 12 14 22q10 16 12.5 27t1.5 33v63
q-4 49 -45 49q-40 0 -47 -32q-2 -5 -2 -22v-117h-111zM142 130h116v-130h-116v130z" />
    <glyph glyph-name="at" unicode="@" horiz-adv-x="896" 
d="M565 433l15 62h68l-33 -150q-28 -134 -28 -173q0 -21 8.5 -31.5t21.5 -10.5q21 0 49 24.5t51 65.5q52 93 52 201q0 114 -67.5 175.5t-180.5 61.5q-91 0 -177 -48q-75 -39 -134 -118q-85 -118 -85 -260q0 -125 78 -206q91 -95 251 -95q140 0 268 91q4 4 14.5 11.5
t14.5 10.5q14 11 36 33l32 -41q-11 -12 -35 -34q-151 -126 -331 -126q-59 0 -114 15q-33 9 -64 21.5t-70.5 40t-68 63.5t-48 94t-19.5 128q0 166 106 302q23 29 52 55t73 54.5t104 45.5t126 17q132 0 210 -74q87 -79 87 -215q0 -111 -49 -206q-23 -50 -65 -91
q-60 -56 -117 -56t-77 47q-6 16 -6 38q-61 -84 -144 -84q-41 0 -74 25q-56 42 -56 141q0 42 9 79q15 59 51 110.5t85 75.5q35 16 67 16q57 0 92 -45q10 -12 22 -40zM540 348q0 27 -4 41q-4 12 -10.5 24.5t-24.5 26t-42 13.5q-51 0 -87 -47q-54 -71 -54 -168q0 -40 12 -62
q9 -17 23 -26q19 -14 43 -14q48 0 88 48q56 69 56 164z" />
    <glyph glyph-name="A" unicode="A" horiz-adv-x="437" 
d="M147 706h149l132 -706h-132l-17 115h-120l-19 -115h-130zM175 224h90l-43 303z" />
    <glyph glyph-name="B" unicode="B" horiz-adv-x="479" 
d="M50 706h219q29 0 43 -0.5t36 -7t38 -19.5q19 -15 28.5 -36t11 -36.5t2.5 -44.5v-63q0 -31 -4 -50q-5 -21 -14 -35t-23 -20.5t-20.5 -8.5t-20.5 -5q50 -10 70 -34q5 -7 9 -15t6 -14.5t3 -17t1.5 -15.5t0.5 -17v-16v-100q0 -6 -0.5 -16.5t-0.5 -15.5q-5 -79 -62 -105
q-26 -12 -100 -14h-223v706zM180 427h47q27 0 35 2q37 6 37 63v48q0 22 -3 31q-3 12 -9 19t-17 10t-17 3.5t-21 1.5h-52v-178zM180 102h55q23 0 33 2q22 3 31.5 18.5t8.5 50.5v83q0 29 -4 39q-10 30 -68 30h-56v-223z" />
    <glyph glyph-name="C" unicode="C" horiz-adv-x="458" 
d="M302 449v89q0 4 -0.5 12.5t-1.5 12.5q-2 31 -17.5 44.5t-47.5 13.5q-21 0 -35 -8q-23 -14 -25 -69v-378q0 -20 2 -29q7 -51 62 -51q23 0 41 11q14 10 17.5 25t4.5 51v92h128v-100q-2 -61 -10 -84q-12 -34 -38.5 -56t-60.5 -29.5t-49.5 -9t-31.5 -1.5q-35 0 -67 7
q-92 18 -119 84q-10 26 -10 74v384q0 6 1 18.5t1 18.5q3 71 50 109q52 41 146 41q84 0 132 -32q31 -21 44 -52q12 -25 12 -80v-108h-128z" />
    <glyph glyph-name="D" unicode="D" horiz-adv-x="479" 
d="M50 706h239q59 -3 97 -35q32 -28 41.5 -62.5t10.5 -88.5v-330q0 -26 -1 -39q-5 -92 -66 -129q-32 -18 -112 -22h-209v706zM180 103h46q29 0 37 2q20 3 30.5 15t12.5 25t2 34v352q0 45 -18 60q-15 12 -59 12h-51v-500z" />
    <glyph glyph-name="E" unicode="E" horiz-adv-x="417" 
d="M50 706h342v-107h-212v-166h200v-107h-200v-217h222v-109h-352v706z" />
    <glyph glyph-name="F" unicode="F" 
d="M50 706h346v-109h-215v-177h202v-105h-202v-315h-131v706z" />
    <glyph glyph-name="G" unicode="G" horiz-adv-x="479" 
d="M303 478v68v5q0 15 -0.5 22.5t-6 18t-15.5 17.5q-15 10 -39 10q-26 0 -41 -11q-25 -18 -25 -80v-373q0 -24 5 -37q13 -32 56 -32q34 0 51 18q15 18 15 63v110h-80v106h210v-383h-111v42q-18 -19 -28 -27q-39 -30 -98 -30t-94 24.5t-48 57.5q-5 13 -10 62v402q2 64 13 94
q36 96 188 96q126 0 169 -65q19 -28 19 -75v-103h-130z" />
    <glyph glyph-name="H" unicode="H" horiz-adv-x="479" 
d="M50 706h130v-277h119v277h130v-706h-130v323h-119v-323h-130v706z" />
    <glyph glyph-name="I" unicode="I" horiz-adv-x="229" 
d="M50 706h129v-706h-129v706z" />
    <glyph glyph-name="J" unicode="J" 
d="M215 706h131v-546q0 -48 -8 -75q-28 -100 -172 -100q-76 0 -117 31q-26 16 -39 54q-4 12 -9 59v95h121v-67q-1 -51 22 -63q10 -6 24 -6q17 0 28 9q19 13 19 64v545z" />
    <glyph glyph-name="K" unicode="K" horiz-adv-x="458" 
d="M50 706h132v-275l141 275h134l-161 -305l165 -401h-141l-138 345v-345h-132v706z" />
    <glyph glyph-name="L" unicode="L" horiz-adv-x="375" 
d="M50 706h130v-599h191v-107h-321v706z" />
    <glyph glyph-name="M" unicode="M" horiz-adv-x="688" 
d="M50 706h212l83 -494l84 494h209v-706h-130l12 612l-114 -612h-121l-117 612l10 -612h-128v706z" />
    <glyph glyph-name="N" unicode="N" horiz-adv-x="500" 
d="M450 0h-164l-125 529l11 -529h-122v706h167l127 -518l-13 518h119v-706z" />
    <glyph glyph-name="O" unicode="O" horiz-adv-x="479" 
d="M44 151v396q0 89 44 128q52 46 154 46q71 0 115 -24t62 -59q15 -31 16 -94v-393q-2 -81 -41 -119q-51 -47 -153 -47q-96 0 -147 41q-26 21 -35 44q-13 27 -15 81zM175 530v-357q0 -47 12 -65q16 -21 53 -21q25 0 41 12q23 15 23 71v365q0 42 -8 57q-14 31 -54 31
q-25 0 -42 -13q-8 -6 -13.5 -12.5t-7.5 -16.5l-3 -15t-1 -19v-17z" />
    <glyph glyph-name="P" unicode="P" horiz-adv-x="458" 
d="M50 706h262q21 0 35 -3q49 -11 69 -50q15 -30 15 -106v-93q0 -53 -4.5 -79.5t-20.5 -45.5q-27 -34 -115 -35h-110v-294h-131v706zM181 395h63q40 0 50 14q9 12 9 49v72q0 45 -10 57q-12 15 -48 15h-64v-207z" />
    <glyph glyph-name="Q" unicode="Q" horiz-adv-x="479" 
d="M414 60l71 -74l-80 -79l-89 91q-2 0 -6 -2t-6 -2q-36 -9 -76 -9q-98 0 -147 50q-18 19 -25 38q-12 27 -12 65v412q2 57 15 85q18 37 63 61.5t118 24.5q92 0 144 -43q22 -19 33 -41q13 -28 16 -93v-397q0 -51 -19 -87zM175 541v-390q1 -16 3.5 -27t17.5 -23t42 -12
q19 0 32.5 7t19.5 14t9 22t3 18.5v16.5v391q-3 64 -62 64q-20 0 -34 -7q-31 -13 -31 -74z" />
    <glyph glyph-name="R" unicode="R" horiz-adv-x="479" 
d="M50 706h260q56 0 86 -23q20 -14 29.5 -38t10.5 -40t1 -48v-76q0 -52 -14 -76q-3 -8 -15 -19q-17 -14 -62 -25q14 0 39 -14q57 -31 57 -109v-144q0 -56 18 -83q7 -7 12 -11h-143q-1 2 -3 5.5t-3 5.5q-12 26 -13 57v161q0 22 -1 34q-5 46 -67 48h-62v-311h-130v706z
M180 412h68q37 2 49 17l4 6t3 5.5t1.5 8t1 7.5t1 10.5t0.5 12.5v68q-3 35 -15 47q-13 11 -45 11h-68v-193z" />
    <glyph glyph-name="S" unicode="S" horiz-adv-x="458" 
d="M38 249h129v-82q0 -2 0.5 -12.5t0.5 -14.5t1.5 -12.5t3.5 -13t6.5 -10t10.5 -9.5q16 -10 40 -10q30 0 45 13q13 10 16 30t3 64t-14 65q-6 9 -30 28l-123 83q-3 3 -10 8t-10 7.5t-8.5 6.5t-8.5 7.5t-7 8t-7.5 9.5t-7.5 11q-25 42 -25 112q0 62 17 97q14 30 40.5 49.5
t58 26t47 8.5t29.5 2q135 0 171 -93q7 -16 11 -59v-70h-130v72q-2 51 -58 51q-58 0 -58 -70q0 -48 14 -68q5 -7 27 -23l126 -87q40 -31 58 -55q5 -7 9 -13t7 -13.5t5 -12t3.5 -13t2 -12t1 -14t0.5 -13v-15.5v-16q0 -80 -7 -104q-28 -108 -183 -108q-94 0 -145 40
q-27 21 -37 48q-12 26 -14 73v103z" />
    <glyph glyph-name="T" unicode="T" 
d="M2 706h392v-102h-131v-604h-131v604h-130v102z" />
    <glyph glyph-name="U" unicode="U" horiz-adv-x="479" 
d="M49 706h130v-525q2 -44 7 -55q13 -30 54 -30q23 0 38 11q5 3 8.5 7t5.5 8t4 10t2.5 9.5t1 10.5t0.5 10v10.5v9.5v524h131v-547q-1 -27 -3 -41.5t-9 -34.5t-20 -37q-47 -61 -163 -61q-96 0 -144 51q-19 19 -30 48q-11 27 -13 78v544z" />
    <glyph glyph-name="V" unicode="V" horiz-adv-x="417" 
d="M6 706h138l69 -467l64 467h133l-133 -706h-131z" />
    <glyph glyph-name="W" unicode="W" horiz-adv-x="708" 
d="M12 706h135l71 -532l76 532h123l74 -532l74 532h132l-136 -706h-137l-68 482l-76 -482h-139z" />
    <glyph glyph-name="X" unicode="X" horiz-adv-x="479" 
d="M31 706h142l67 -199l68 199h142l-141 -334l156 -372h-143l-83 245l-84 -245h-141l156 376z" />
    <glyph glyph-name="Y" unicode="Y" horiz-adv-x="417" 
d="M1 706h137l72 -356l69 356h137l-141 -497v-209h-133v218z" />
    <glyph glyph-name="Z" unicode="Z" horiz-adv-x="417" 
d="M52 706h344v-70l-231 -526h227v-110h-369v82l225 515h-196v109z" />
    <glyph glyph-name="bracketleft" unicode="[" horiz-adv-x="333" 
d="M50 759h240v-89h-122v-752h123v-90h-241v931z" />
    <glyph glyph-name="backslash" unicode="\" horiz-adv-x="354" 
d="M248 0l-222 706h80l222 -706h-80z" />
    <glyph glyph-name="bracketright" unicode="]" horiz-adv-x="333" 
d="M284 -172h-240v90h122v752h-123v89h241v-931z" />
    <glyph glyph-name="asciicircum" unicode="^" horiz-adv-x="729" 
d="M587 336h-97l-124 260l-128 -260h-96l188 370h77z" />
    <glyph glyph-name="underscore" unicode="_" horiz-adv-x="500" 
d="M510 -216h-520v79h520v-79z" />
    <glyph glyph-name="grave" unicode="`" horiz-adv-x="250" 
d="M-103 706h153l67 -132h-87z" />
    <glyph glyph-name="a" unicode="a" 
d="M42 354v58q4 49 29 73q38 38 129 38q105 0 140 -64q12 -21 12 -49v-285q0 -95 15 -116q1 -4 8 -9h-125q-11 13 -14 45q-2 -2 -8 -9t-10 -10q-37 -37 -85 -37q-37 0 -62 19q-18 13 -27.5 38t-10.5 42.5t-1 48.5v8v7q0 70 24 98q11 13 54 38l124 62v30q1 42 -16 54
q-12 7 -26 7q-28 0 -37 -20q-4 -9 -4 -48v-19h-109zM233 258l-58 -38q-8 -6 -10 -8q-17 -16 -17 -74q0 -31 6 -45t23 -14q17 1 43 18l13 11v150z" />
    <glyph glyph-name="b" unicode="b" horiz-adv-x="417" 
d="M44 706h119v-234q19 16 20 17q49 33 87 33q32 0 60 -18.5t40 -49.5q5 -15 9 -51v-290q-3 -37 -8 -53q-12 -33 -40 -52t-63 -19q-50 0 -86 35q-11 10 -18 23l-1 -47h-119v706zM162 365v-207q0 -13 1 -23q6 -45 49 -45q22 0 33 14q13 17 13 54v215q0 33 -14 46
q-12 12 -31 12q-36 0 -47 -31q-4 -12 -4 -35z" />
    <glyph glyph-name="c" unicode="c" 
d="M250 318v62q0 13 -2 25q-9 33 -43 32q-16 0 -28 -7q-20 -13 -21 -62v-223q0 -26 3 -35q9 -32 44 -32q14 0 26 7q20 14 20 59v59h118v-58q0 -67 -29 -103q-41 -52 -133 -52t-136 48q-16 21 -21 36q-8 19 -10 65v227q4 68 28 98q44 58 139 58q12 0 25.5 -1.5t41 -7.5
t51 -23.5t34.5 -44.5q9 -22 10 -66v-61h-117z" />
    <glyph glyph-name="d" unicode="d" horiz-adv-x="417" 
d="M253 706h119v-706h-120l1 50q-25 -35 -47 -48q-24 -12 -53 -12q-38 0 -71 22q-27 20 -35.5 49t-7.5 93v233q-5 84 52 119q31 17 59 17q47 0 103 -52v235zM253 152v220q-1 15 -1.5 21.5t-5.5 15.5t-15 14q-13 8 -29 8q-15 0 -26 -8q-19 -13 -19 -57v-218q-1 -38 17 -50
q11 -8 29 -8q27 0 41 20q8 11 9 42z" />
    <glyph glyph-name="e" unicode="e" 
d="M243 169h115v-41q0 -29 -5 -46q-26 -92 -152 -92t-154 98q-9 28 -9 67v216q0 1 0.5 10t1.5 17.5t4 20.5t7 21q17 42 59 62t92 20q56 0 93 -22.5t51 -50.5q10 -20 14 -73v-146h-203v-84q0 -25 3 -34q9 -29 41 -29q29 0 38 28l3 18zM157 314h85v63q0 51 -41 51
q-15 0 -24.5 -5.5t-13.5 -16.5t-4.5 -15t-1.5 -14v-63z" />
    <glyph glyph-name="f" unicode="f" horiz-adv-x="250" 
d="M183 512h53v-79h-54v-433h-118v433h-53v79h53v90l3 24q5 35 30 57q29 25 99 25q16 0 44 -2v-98q-27 3 -35 1q-22 -5 -22 -34v-63z" />
    <glyph glyph-name="g" unicode="g" horiz-adv-x="417" 
d="M253 512h120v-530q-1 -5 -1 -16t-1 -17q-4 -68 -52 -101q-43 -30 -121 -30q-11 0 -41 3q-87 15 -108 74q-8 20 -8 63h118q0 -18 2 -24q8 -30 44 -30q15 0 27 7q21 12 21 54v79q-44 -50 -104 -50q-36 0 -61 15q-30 15 -38.5 40t-11.5 65v8v271q2 40 7 56t14 30t32.5 28.5
t55.5 14.5q52 0 106 -51v41zM252 143v227q0 62 -48 62q-18 0 -29 -9q-18 -14 -19 -52v-228q2 -23 4 -30q9 -27 43 -27q8 0 15 1.5t11.5 4.5t8 6t6 7.5t4 8t2.5 9t1 8t1 7.5v5z" />
    <glyph glyph-name="h" unicode="h" horiz-adv-x="417" 
d="M44 706h117l1 -235q47 51 104 51q35 0 62 -18.5t38 -51.5q6 -17 7 -51v-401h-119v364q0 30 -4 40q-11 23 -40 23q-35 0 -45 -35q-2 -8 -2 -21v-371h-119v706z" />
    <glyph glyph-name="i" unicode="i" horiz-adv-x="208" 
d="M44 706h120v-120h-120v120zM44 512h120v-512h-120v512z" />
    <glyph glyph-name="j" unicode="j" horiz-adv-x="208" 
d="M45 706h119v-119h-119v119zM45 512h119v-560q0 -84 -45 -112q-25 -17 -79 -17q-26 0 -48 3v99q31 0 42 10l5 5t3 5.5t1.5 5.5t1 7t0.5 7v9.5v11.5v526z" />
    <glyph glyph-name="k" unicode="k" 
d="M44 706h118v-369l98 175h132l-131 -213l145 -299h-134l-110 261v-261h-118v706z" />
    <glyph glyph-name="l" unicode="l" horiz-adv-x="208" 
d="M44 706h120v-706h-120v706z" />
    <glyph glyph-name="m" unicode="m" horiz-adv-x="625" 
d="M45 512h119v-34q49 45 101 45t96 -51q29 25 45 33.5t39 13.5q17 3 33 3q35 0 61.5 -18.5t36.5 -51.5q4 -16 5 -46v-406h-119v379q0 39 -18 52q-12 7 -25 7q-27 0 -36.5 -17.5t-11.5 -47.5v-373h-118v376v7.5v8t-0.5 7t-1 7.5t-1.5 6.5t-3 7t-4.5 5.5t-5.5 6q-10 9 -28 9
q-46 0 -46 -61v-379h-118v512z" />
    <glyph glyph-name="n" unicode="n" horiz-adv-x="417" 
d="M44 512h121l-1 -37q26 25 48 36t54 11q37 0 65.5 -18.5t37.5 -53.5q3 -12 4 -50v-400h-118v377q-1 27 -4 37.5t-14 17.5q-8 6 -23 6q-51 0 -51 -69v-369h-119v512z" />
    <glyph glyph-name="o" unicode="o" 
d="M358 379v-247q-3 -60 -29 -90q-43 -52 -136 -52q-29 0 -51 5q-73 15 -95 81q-8 22 -9 69v229q1 41 10 65q31 83 152 83q114 0 146 -75q9 -21 12 -68zM240 126v260q-1 45 -19 56q-8 6 -22 6q-15 0 -24 -7q-5 -3 -8 -7.5t-5 -8t-3 -10t-1 -9t-0.5 -11t-0.5 -10.5v-260l1 -5
q0 -6 0.5 -9.5t2 -10t4 -10.5t7 -8.5t11 -7t15.5 -2.5q42 0 42 54z" />
    <glyph glyph-name="p" unicode="p" horiz-adv-x="417" 
d="M44 512h119v-39l7 5q6 6 10 9t12.5 9.5t16.5 10t18 7.5t21 6t22 2q54 0 85 -41q5 -7 9 -15.5t6 -14.5t4 -16.5t2.5 -15t1.5 -17t1 -15.5v-272q-6 -56 -17 -76q-8 -14 -22 -27q-27 -22 -66 -22q-23 0 -43.5 8t-33.5 17.5t-34 27.5v-220h-119v689zM259 140v237
q-3 37 -21 49q-14 7 -26 7q-16 0 -27 -7q-22 -13 -22 -52v-230q0 -19 4 -29q11 -28 45 -28q32 0 42 24q5 11 5 29z" />
    <glyph glyph-name="q" unicode="q" horiz-adv-x="417" 
d="M255 512h118v-689h-118v220q-1 -1 -10.5 -9.5t-14.5 -12.5q-38 -32 -85 -32q-75 1 -100 73q-7 24 -7 50v279q2 38 8 56q12 36 42 56t68 19q53 0 99 -46v36zM254 149v236q0 13 -3 21q-11 30 -46 30q-3 0 -23 -5q-25 -12 -25 -46v-243l1 -4v-6.5t0.5 -6.5t1.5 -7.5t3 -7
t4.5 -7l6 -6t7.5 -5t10 -3t13 -1.5q11 0 19.5 2.5t13.5 7.5t8.5 10t5 12t2.5 11t1 11v7z" />
    <glyph glyph-name="r" unicode="r" horiz-adv-x="292" 
d="M44 512h119l-1 -65l18 30q36 47 99 44l-1 -118q-18 8 -39 8q-27 0 -45 -12q-15 -11 -22.5 -29.5t-8.5 -30.5t-1 -37v-302h-118v512z" />
    <glyph glyph-name="s" unicode="s" horiz-adv-x="375" 
d="M27 180h110v-40q1 -25 3 -32q6 -33 43 -33q17 0 27 7q20 12 20 49q0 27 -6.5 38.5t-28.5 27.5l-100 71q-35 28 -48 53.5t-13 69.5q1 72 40.5 101.5t114.5 29.5q102 0 132 -55q12 -20 14 -62v-57h-103v37q0 56 -44 56q-12 0 -22 -5q-19 -11 -19 -41q0 -14 5 -24.5t9.5 -15
t19.5 -16.5l110 -77l31 -31q19 -27 19 -83q0 -79 -27 -112q-37 -46 -131 -46q-115 0 -145 71q-11 26 -11 66v53z" />
    <glyph glyph-name="t" unicode="t" horiz-adv-x="271" 
d="M71 698h118v-186h71v-79h-71v-292q0 -20 3 -28q8 -28 51 -28q6 0 20 2v-86q-26 -6 -61 -6q-98 0 -120 48q-8 16 -10 59v331h-65v79h64v186z" />
    <glyph glyph-name="u" unicode="u" horiz-adv-x="417" 
d="M44 512h120v-368q-2 -36 11 -49t32 -13q18 0 30 10q16 14 16 58v362h120v-512h-120v42q-55 -51 -109 -51q-33 0 -60 18q-19 13 -28.5 35t-10.5 37t-1 45v386z" />
    <glyph glyph-name="v" unicode="v" horiz-adv-x="354" 
d="M1 512h119l53 -355l61 355h119l-123 -512h-116z" />
    <glyph glyph-name="w" unicode="w" horiz-adv-x="562" 
d="M4 512h116l54 -338l60 338h97l54 -338l58 338h116l-116 -512h-112l-50 304l-60 -304h-113z" />
    <glyph glyph-name="x" unicode="x" horiz-adv-x="375" 
d="M25 512h123l44 -171l46 171h115l-92 -234l110 -278h-128l-58 207l-58 -207h-123l111 278z" />
    <glyph glyph-name="y" unicode="y" horiz-adv-x="354" 
d="M1 512h118l66 -329l51 329h117l-117 -549q-17 -76 -39 -103q-31 -37 -104 -37q-23 0 -77 9l18 94q28 -7 45 -7q19 0 31 12t15 22t8 33l1 14z" />
    <glyph glyph-name="z" unicode="z" horiz-adv-x="354" 
d="M43 512h282v-96l-177 -316h185v-100h-309v100l179 316h-160v96z" />
    <glyph glyph-name="braceleft" unicode="{" horiz-adv-x="354" 
d="M140 414v168q1 31 3.5 49t13 41.5t30.5 40.5q25 21 54 28q19 4 85 7l-1 -6q-50 -12 -72 -38q-18 -19 -22.5 -45t-5.5 -84v-98q0 -85 -2 -110q0 -59 -36 -93q-13 -13 -48 -25q44 -17 62 -41q16 -22 20 -45t5 -75v-166q1 -55 5.5 -80.5t21.5 -45.5q23 -28 73 -40l-1 -6
q-61 2 -93.5 10t-54.5 32q-18 19 -27 50.5t-9.5 49t-0.5 53.5v129q0 61 -3.5 87.5t-17.5 48.5t-50 37v6q36 11 51 34q12 20 15.5 46t4.5 81z" />
    <glyph glyph-name="bar" unicode="|" horiz-adv-x="229" 
d="M155 -250h-81v998h81v-998z" />
    <glyph glyph-name="braceright" unicode="}" horiz-adv-x="354" 
d="M215 83v-125q-3 -70 -4 -84q-12 -78 -69 -107q-27 -13 -113 -17v6q48 11 70 35q19 19 24 46.5t6 85.5v98q0 68 1 103v6q1 7 1.5 12.5t2 14.5t4.5 17t7 17.5t10 18t14 15.5q14 13 46 24q-6 0 -30 12q-36 20 -50 67q-7 28 -7 137v110q0 83 -18 114q-20 35 -81 53v6
q66 -2 100 -13t56 -39q17 -24 23 -54.5t6 -89.5v-129q0 -63 4.5 -91.5t21.5 -50.5q15 -19 45 -30v-6q-12 -4 -22 -8q-19 -10 -31 -30q-17 -30 -17 -124z" />
    <glyph glyph-name="asciitilde" unicode="~" horiz-adv-x="729" 
d="M369 246l-30 15l-7 3q-6 3 -14 6.5t-18 7t-21 5.5t-21 2t-18 -1.5t-16.5 -6.5t-13.5 -8t-13 -12t-11 -12t-12 -14t-10 -13l-40 72q0 1 6 8.5t9.5 12t11.5 13.5t15 14.5t17.5 13t21 12t24.5 7.5t28 3q39 -1 111 -34l33 -15q46 -21 70 -21q12 0 24.5 4.5t22 10.5t19 14
t15 14.5t10.5 12.5l5 6l38 -72q-21 -25 -44 -43q-43 -36 -93 -36q-36 1 -99 31z" />
    <glyph glyph-name="exclamdown" unicode="&#xa1;" horiz-adv-x="229" 
d="M151 0h-113v313l19 203h78l16 -197v-319zM154 574h-119v132h119v-132z" />
    <glyph glyph-name="sterling" unicode="&#xa3;" horiz-adv-x="479" 
d="M250 339h106v-61h-84q9 -33 9 -52q-1 -48 -30 -119q2 -2 6 -4t6 -4q32 -17 51 -17q11 0 21 6q15 12 20 56l1 53h101v-75q0 -29 -6 -53q-23 -81 -108 -81q-21 0 -43 7q-44 13 -90 44q-51 -51 -100 -51q-18 0 -37 7q-51 21 -51 77q0 37 25.5 61t62.5 24q18 0 75 -19
q9 21 9 36q0 36 -37 104h-111v61h86l-18 42q-33 77 -33 146q0 89 51 134q46 42 124 42q77 0 122 -37q27 -22 42 -61q8 -24 12 -75v-49h-115v41q0 4 -0.5 11.5t-0.5 11.5q-4 62 -56 62q-22 0 -36 -12q-25 -21 -25 -77q0 -16 2.5 -33.5t5 -29t9 -31t9.5 -27t13 -30.5t12 -28z
M149 74q-24 20 -44 20q-11 0 -18.5 -7.5t-7.5 -17.5q1 -11 8.5 -18t18.5 -7q5 0 9.5 1.5t7.5 3.5t7.5 5.5t6.5 6t6 7t6 6.5z" />
    <glyph glyph-name="currency" unicode="&#xa4;" horiz-adv-x="667" 
d="M548 183l77 -76l-62 -60l-76 76q-1 0 -11 -7t-12.5 -8t-12.5 -7t-15 -7.5t-15 -6t-18.5 -6t-19.5 -4t-23.5 -3.5t-25.5 -1q-39 0 -72.5 10t-44.5 16.5t-39 24.5l-76 -76l-60 61l77 75q-18 28 -25 39.5t-17 45t-10 71.5q0 66 30 121q5 11 21 33l-75 76l60 60l75 -75
q4 2 11.5 7t11.5 8q61 36 134 36q13 0 25 -1t23 -3.5t19 -4t19 -6t15.5 -6t15 -7.5t12.5 -7.5t14 -8.5l11 -7l75 75l61 -60l-76 -76q17 -26 24.5 -38.5t16.5 -44.5t9 -69q0 -24 -3 -48q-7 -49 -48 -111zM519 340q0 66 -37 114q-56 74 -147 73q-39 0 -77 -15
q-53 -23 -82 -69.5t-29 -101.5q0 -65 36 -115q20 -28 59 -51t91 -23q75 0 126 47q60 55 60 141z" />
    <glyph glyph-name="brokenbar" unicode="&#xa6;" horiz-adv-x="229" 
d="M74 190h81v-381h-81v381zM74 308v381h81v-381h-81z" />
    <glyph glyph-name="section" unicode="&#xa7;" horiz-adv-x="437" 
d="M393 512h-113v45q-2 32 -2 33q-7 40 -54 40q-48 0 -48 -55q0 -21 6.5 -33t24.5 -28l21 -21l12 -9l120 -103q62 -54 61 -120q0 -30 -9 -57q-4 -11 -9.5 -21t-15 -22t-12.5 -16.5t-17 -19.5t-15 -16q27 -29 36.5 -52t9.5 -81q0 -55 -22 -89q-26 -40 -85 -55q-34 -7 -65 -7
q-85 0 -130 37q-22 17 -33 43q-8 22 -8 59v85h115v-52q0 -45 8 -59q13 -21 46 -21q39 0 49 29q2 6 2 22q0 44 -9 60q-6 10 -45 44l-126 108q-1 1 -17 14q-35 35 -46 66q-9 22 -9 51q0 26 10 51q14 36 71 95q-22 25 -30 44t-8 51q0 26 1 39q4 69 54 102q39 25 117 25
q121 0 154 -69q10 -23 10 -67v-70zM283 170l3 4q4 5 9 11.5t9.5 14.5t8 17.5t3.5 17.5q0 19 -17 41q-13 17 -103 90q-8 6 -22 18t-21 17q-1 -2 -6.5 -9.5t-7.5 -11t-6.5 -10.5t-6.5 -12t-3.5 -12t-1.5 -13q0 -9 3 -17.5t11 -18t11.5 -13.5t15 -14.5t12.5 -11.5
q64 -55 109 -88z" />
    <glyph glyph-name="dieresis" unicode="&#xa8;" horiz-adv-x="250" 
d="M-100 726h118v-125h-120zM82 726h120v-124h-120v124z" />
    <glyph glyph-name="copyright" unicode="&#xa9;" horiz-adv-x="833" 
d="M613 502l-56 -53q-11 12 -21 21q-50 47 -111 47q-38 0 -73 -17q-34 -17 -60.5 -53t-26.5 -94q1 -38 15 -68q15 -34 52 -63t94 -29q56 0 102 36q11 9 29 29l56 -49q-25 -28 -33 -34q-65 -57 -155 -57q-71 0 -125 32q-25 14 -43 32q-70 68 -70 172q0 58 24 108q22 48 76 89
t137 41q85 0 149 -51q5 -4 40 -39zM773 351q-1 -76 -33.5 -148.5t-93.5 -123.5q-99 -82 -230 -82q-87 0 -152.5 34t-105.5 75q-97 102 -97 248q0 103 53 188q26 44 70 82q100 85 233 85q104 0 176.5 -44.5t110.5 -97.5q69 -96 69 -216zM740 352q0 23 -4 48.5t-16 66t-42 81
t-74 71.5q-82 58 -186 58q-136 0 -230.5 -94.5t-94.5 -229.5q0 -112 67 -199q38 -49 103 -87t154 -38q132 0 228 93q40 39 63.5 92t27.5 82.5t4 55.5z" />
    <glyph glyph-name="guillemotleft" unicode="&#xab;" horiz-adv-x="313" 
d="M278 127l-102 94v94l102 94v-97l-43 -45l43 -42v-98zM133 127l-102 93v92l102 97v-97l-39 -45l39 -40v-100z" />
    <glyph glyph-name="logicalnot" unicode="&#xac;" horiz-adv-x="667" 
d="M587 253h-587v79h667v-332h-80v253z" />
    <glyph glyph-name="registered" unicode="&#xae;" horiz-adv-x="833" 
d="M595 131l-92 1q-5 11 -9 22.5t-6.5 24.5t-4 22t-3.5 25.5t-3 23.5q-5 32 -12.5 46.5t-22.5 23.5q-20 12 -68 13h-28v-202h-80v449h146h9q35 0 54.5 -1.5t46.5 -12t43 -31.5q24 -30 24 -70q0 -67 -61 -96q-17 -7 -32 -11q20 -9 27 -14q8 -6 14.5 -15t10 -15.5t7 -19.5
t4.5 -18.5t3 -20.5t3 -18q12 -73 30 -106zM346 396h67q18 0 27 1q47 4 62 34q7 11 7 28q0 35 -28 51q-19 9 -60 9q-3 0 -11 -0.5t-12 -0.5h-52v-122zM773 351q0 -129 -85 -229q-43 -51 -102 -81.5t-96.5 -37t-72.5 -6.5q-122 0 -218 73q-138 108 -138 284q0 130 81 228
q109 127 276 127q85 0 160 -37t126 -106q71 -95 69 -215zM741 352q0 109 -63 195q-15 20 -34.5 39t-51.5 41.5t-77.5 36t-96.5 13.5q-108 0 -192 -62q-20 -15 -39.5 -34.5t-42.5 -52t-37 -78t-14 -97.5q0 -65 24 -123q37 -91 119.5 -146t181.5 -55q54 0 109 19
q97 34 155 117.5t59 186.5z" />
    <glyph glyph-name="degree" unicode="&#xb0;" horiz-adv-x="354" 
d="M177 755q67 0 114 -47t47 -114q0 -37 -15 -69q-20 -42 -60 -67.5t-86 -25.5q-67 1 -114 48t-47 114t47 114t114 47zM177 675q-33 0 -56 -23.5t-23 -55.5q0 -33 23.5 -56t55.5 -23q33 0 56 23t23 56q0 32 -23 55.5t-56 23.5z" />
    <glyph glyph-name="plusminus" unicode="&#xb1;" horiz-adv-x="500" 
d="M291 162h-79v179h-181v80h181v179h79v-179h178v-80h-178v-179zM469 0h-438v79h438v-79z" />
    <glyph glyph-name="acute" unicode="&#xb4;" horiz-adv-x="250" 
d="M54 725h156q-65 -68 -67 -70q-12 -12 -33 -34.5t-27 -29.5l-94 -1z" />
    <glyph glyph-name="mu" unicode="&#xb5;" horiz-adv-x="562" 
d="M504 140l28 1q14 -34 14 -69q0 -9 -1.5 -19t-7.5 -26.5t-21 -27t-38 -10.5q-41 0 -68 39q-12 16 -21 44q-57 -87 -146 -87q-60 0 -102 48q-6 6 -14 18q-7 -102 30 -178l27 -45q19 -32 19 -48q0 -18 -12 -30t-31 -12q-11 0 -23 6q-20 10 -33 39q-26 55 -26 172
q0 100 11 170q-1 7 -3 20t-3.5 23.5t-2.5 19.5q-11 84 -11 177q0 46 6 64q18 36 44 35q20 0 32 -19q12 -17 12 -53q0 -25 -6 -77q-3 -28 -11 -95q-10 -79 -13 -95q7 -18 19 -39q32 -45 81 -45q29 0 53 18q10 7 19 16.5t15 20.5t11 21t8.5 21t5.5 17.5t4 14.5l2 8
q4 20 6 44.5t2.5 48t0.5 41.5v34l-1 16q0 66 12 84q13 19 36 18q15 0 25 -7q26 -19 26 -91q0 -121 -29 -209q-7 -23 -20 -48q19 -51 54 -51q9 0 19 6q24 13 24 54q0 6 -2 22z" />
    <glyph glyph-name="paragraph" unicode="&#xb6;" horiz-adv-x="667" 
d="M539 706v-54h-34v-819h-58v819h-144v-819h-58v486q-35 7 -57 16t-44 30q-18 15 -31 38q-26 44 -26 103q0 63 32 113q33 52 92 73q33 13 98 14h230z" />
    <glyph glyph-name="periodcentered" unicode="&#xb7;" horiz-adv-x="187" 
d="M161 286q-2 -28 -20.5 -46t-46.5 -17q-16 0 -31 6q-36 20 -36 60q0 28 19.5 49t48.5 21t48.5 -21.5t17.5 -51.5z" />
    <glyph glyph-name="cedilla" unicode="&#xb8;" horiz-adv-x="250" 
d="M23 26h44v-79q67 0 91 -28q14 -14 14 -40q0 -34 -29 -54q-28 -18 -86 -18q-10 0 -24 1t-24 2t-11 1q-4 1 -12.5 3t-12.5 3v30q42 -6 63 0q23 8 23 27q0 12 -9.5 19t-16 8.5t-10.5 1.5v123z" />
    <glyph glyph-name="guillemotright" unicode="&#xbb;" horiz-adv-x="313" 
d="M34 409l103 -94v-94l-103 -94v97l43 45l-43 42v98zM179 409l102 -93v-92l-102 -97v97l40 45l-40 40v100z" />
    <glyph glyph-name="questiondown" unicode="&#xbf;" horiz-adv-x="417" 
d="M351 243v-74q0 -32 -1 -50t-9.5 -44.5t-24.5 -43.5q-39 -40 -131 -40q-72 0 -115 31q-21 14 -30 36q-12 27 -12 87q0 20 2 56q0 20 3 35q5 23 35 70l51 73q36 50 41 81q2 11 2 34v22h113v-34q1 -37 -6 -58t-29 -55l-65 -103q-2 -2 -5.5 -7.5t-5.5 -8.5q-18 -30 -18 -56
v-61q0 -2 0.5 -6t0.5 -6q2 -33 20 -44q8 -5 24 -5q21 0 32.5 10t13.5 19t3 22v3v117h111zM275 576h-117v130h117v-130z" />
    <glyph glyph-name="Agrave" unicode="&#xc0;" horiz-adv-x="437" 
d="M147 706h149l132 -706h-132l-17 115h-120l-19 -115h-130zM175 224h90l-43 303zM63 895h154l66 -133h-86z" />
    <glyph glyph-name="Aacute" unicode="&#xc1;" horiz-adv-x="437" 
d="M147 706h149l132 -706h-132l-17 115h-120l-19 -115h-130zM175 224h90l-43 303zM220 897h156l-127 -134h-93z" />
    <glyph glyph-name="Acircumflex" unicode="&#xc2;" horiz-adv-x="437" 
d="M147 706h149l132 -706h-132l-17 115h-120l-19 -115h-130zM175 224h90l-43 303zM153 895h128l86 -133h-104l-44 73l-48 -73h-104z" />
    <glyph glyph-name="Atilde" unicode="&#xc3;" horiz-adv-x="437" 
d="M147 706h149l132 -706h-132l-17 115h-120l-19 -115h-130zM175 224h90l-43 303zM324 886h64q-1 -28 -2.5 -43.5t-10.5 -37.5t-27 -33q-20 -13 -45 -13q-30 0 -89 27q-34 17 -49 17q-34 0 -44 -41l-65 1q1 36 8.5 60.5t29.5 43.5q25 21 59 21q32 0 85 -24q40 -19 54 -19
q7 0 13 3q13 7 19 38z" />
    <glyph glyph-name="Adieresis" unicode="&#xc4;" horiz-adv-x="437" 
d="M69 883h117v-121h-117v121zM270 883h116v-121h-116v121zM147 706h149l132 -706h-132l-17 115h-120l-19 -115h-130zM175 224h90l-43 303z" />
    <glyph glyph-name="Aring" unicode="&#xc5;" horiz-adv-x="437" 
d="M226 919q37 0 63 -26.5t26 -63.5t-26 -63t-63 -26t-63 26.5t-26 63.5t26 63t63 26zM225 869q-17 0 -29 -12t-12 -29t12.5 -29t29.5 -12q16 0 28.5 12.5t12.5 28.5q-1 17 -13 29t-29 12zM147 706h149l132 -706h-132l-17 115h-120l-19 -115h-130zM175 224h90l-43 303z" />
    <glyph glyph-name="AE" unicode="&#xc6;" horiz-adv-x="708" 
d="M265 706h420v-109h-225v-163h212v-106h-212v-219h226v-109h-356v146h-138l-49 -146h-140zM228 253h102v300z" />
    <glyph glyph-name="Ccedilla" unicode="&#xc7;" horiz-adv-x="458" 
d="M302 449v89q0 4 -0.5 12.5t-1.5 12.5q-2 31 -17.5 44.5t-47.5 13.5q-21 0 -35 -8q-23 -14 -25 -69v-378q0 -20 2 -29q7 -51 62 -51q23 0 41 11q14 10 17.5 25t4.5 51v92h128v-100q-2 -61 -10 -84q-12 -34 -38.5 -56t-60.5 -29.5t-49.5 -9t-31.5 -1.5q-35 0 -67 7
q-92 18 -119 84q-10 26 -10 74v384q0 6 1 18.5t1 18.5q3 71 50 109q52 41 146 41q84 0 132 -32q31 -21 44 -52q12 -25 12 -80v-108h-128zM200 26h44v-79q66 0 91 -28q14 -14 15 -40q-3 -36 -30 -54q-28 -18 -86 -18q-14 0 -36 2l-23 2q-4 1 -12.5 3t-12.5 3v30q42 -6 63 0
q23 8 23 27q0 12 -9.5 19t-16 8.5t-10.5 1.5v123z" />
    <glyph glyph-name="Egrave" unicode="&#xc8;" horiz-adv-x="417" 
d="M50 706h342v-107h-212v-166h200v-107h-200v-217h222v-109h-352v706zM53 895h153l67 -133h-87z" />
    <glyph glyph-name="Eacute" unicode="&#xc9;" horiz-adv-x="417" 
d="M50 706h342v-107h-212v-166h200v-107h-200v-217h222v-109h-352v706zM210 897h155l-127 -134h-92z" />
    <glyph glyph-name="Ecircumflex" unicode="&#xca;" horiz-adv-x="417" 
d="M50 706h342v-107h-212v-166h200v-107h-200v-217h222v-109h-352v706zM142 895h129l86 -133h-105l-44 73l-48 -73h-104z" />
    <glyph glyph-name="Edieresis" unicode="&#xcb;" horiz-adv-x="417" 
d="M50 706h342v-107h-212v-166h200v-107h-200v-217h222v-109h-352v706zM52 883h117v-121h-117v121zM253 883h116v-121h-116v121z" />
    <glyph glyph-name="Igrave" unicode="&#xcc;" horiz-adv-x="229" 
d="M50 706h129v-706h-129v706zM-41 895h154l66 -133h-86z" />
    <glyph glyph-name="Iacute" unicode="&#xcd;" horiz-adv-x="229" 
d="M50 706h129v-706h-129v706zM116 897h155l-126 -134h-93z" />
    <glyph glyph-name="Icircumflex" unicode="&#xce;" horiz-adv-x="229" 
d="M50 706h129v-706h-129v706zM48 895h129l86 -133h-104l-44 73l-48 -73h-105z" />
    <glyph glyph-name="Idieresis" unicode="&#xcf;" horiz-adv-x="229" 
d="M50 706h129v-706h-129v706zM-42 883h117v-121h-117v121zM160 883h116v-121h-116v121z" />
    <glyph glyph-name="Ntilde" unicode="&#xd1;" horiz-adv-x="500" 
d="M450 0h-164l-125 529l11 -529h-122v706h167l127 -518l-13 518h119v-706zM355 886h64q-1 -28 -2.5 -43.5t-10.5 -37.5t-26 -33q-23 -13 -46 -13q-30 0 -89 27q-32 17 -49 17q-34 0 -44 -41l-65 1q2 37 9.5 61t29.5 43q24 21 59 21q31 0 84 -24q40 -19 54 -19q7 0 13 3
q13 7 19 38z" />
    <glyph glyph-name="Ograve" unicode="&#xd2;" horiz-adv-x="479" 
d="M44 151v396q0 89 44 128q52 46 154 46q71 0 115 -24t62 -59q15 -31 16 -94v-393q-2 -81 -41 -119q-51 -47 -153 -47q-96 0 -147 41q-26 21 -35 44q-13 27 -15 81zM175 530v-357q0 -47 12 -65q16 -21 53 -21q25 0 41 12q23 15 23 71v365q0 42 -8 57q-14 31 -54 31
q-25 0 -42 -13q-8 -6 -13.5 -12.5t-7.5 -16.5l-3 -15t-1 -19v-17zM84 895h154l66 -133h-86z" />
    <glyph glyph-name="Oacute" unicode="&#xd3;" horiz-adv-x="479" 
d="M44 151v396q0 89 44 128q52 46 154 46q71 0 115 -24t62 -59q15 -31 16 -94v-393q-2 -81 -41 -119q-51 -47 -153 -47q-96 0 -147 41q-26 21 -35 44q-13 27 -15 81zM175 530v-357q0 -47 12 -65q16 -21 53 -21q25 0 41 12q23 15 23 71v365q0 42 -8 57q-14 31 -54 31
q-25 0 -42 -13q-8 -6 -13.5 -12.5t-7.5 -16.5l-3 -15t-1 -19v-17zM241 897h155l-126 -134h-93z" />
    <glyph glyph-name="Ocircumflex" unicode="&#xd4;" horiz-adv-x="479" 
d="M44 151v396q0 89 44 128q52 46 154 46q71 0 115 -24t62 -59q15 -31 16 -94v-393q-2 -81 -41 -119q-51 -47 -153 -47q-96 0 -147 41q-26 21 -35 44q-13 27 -15 81zM175 530v-357q0 -47 12 -65q16 -21 53 -21q25 0 41 12q23 15 23 71v365q0 42 -8 57q-14 31 -54 31
q-25 0 -42 -13q-8 -6 -13.5 -12.5t-7.5 -16.5l-3 -15t-1 -19v-17zM173 895h129l86 -133h-104l-44 73l-48 -73h-105z" />
    <glyph glyph-name="Otilde" unicode="&#xd5;" horiz-adv-x="479" 
d="M44 151v396q0 89 44 128q52 46 154 46q71 0 115 -24t62 -59q15 -31 16 -94v-393q-2 -81 -41 -119q-51 -47 -153 -47q-96 0 -147 41q-26 21 -35 44q-13 27 -15 81zM175 530v-357q0 -47 12 -65q16 -21 53 -21q25 0 41 12q23 15 23 71v365q0 42 -8 57q-14 31 -54 31
q-25 0 -42 -13q-8 -6 -13.5 -12.5t-7.5 -16.5l-3 -15t-1 -19v-17zM345 886h64q-1 -28 -2.5 -43.5t-10.5 -37.5t-27 -33q-19 -13 -45 -13q-30 0 -89 27q-34 17 -50 17q-33 0 -43 -41l-65 1q1 36 8.5 60.5t29.5 43.5q25 21 59 21q31 0 84 -24q41 -19 55 -19q7 0 13 3
q12 6 19 38z" />
    <glyph glyph-name="Odieresis" unicode="&#xd6;" horiz-adv-x="479" 
d="M83 883h117v-121h-117v121zM285 883h116v-121h-116v121zM44 151v396q0 89 44 128q52 46 154 46q71 0 115 -24t62 -59q15 -31 16 -94v-393q-2 -81 -41 -119q-51 -47 -153 -47q-96 0 -147 41q-26 21 -35 44q-13 27 -15 81zM175 530v-357q0 -47 12 -65q16 -21 53 -21
q25 0 41 12q23 15 23 71v365q0 42 -8 57q-14 31 -54 31q-25 0 -42 -13q-8 -6 -13.5 -12.5t-7.5 -16.5l-3 -15t-1 -19v-17z" />
    <glyph glyph-name="multiply" unicode="&#xd7;" horiz-adv-x="500" 
d="M457 141l-56 -57l-150 151l-152 -151l-56 57l152 152l-152 150l56 55l152 -150l150 150l56 -55l-150 -150z" />
    <glyph glyph-name="Oslash" unicode="&#xd8;" horiz-adv-x="479" 
d="M390 721l57 -28l-33 -65q17 -27 20 -72v-403q-2 -40 -8 -60q-14 -43 -58 -75.5t-121 -32.5q-76 0 -135 43l-20 -39l-59 31l33 62q-18 30 -20 76v395q1 36 7 58.5t26 45.5q55 64 157 64q79 0 134 -38zM178 304l125 241v22q-2 17 -7 28q-15 24 -52 24q-23 0 -41 -11
q-5 -4 -9.5 -8t-7 -10.5t-4 -10.5t-2.5 -12.5t-1 -11.5t-0.5 -12.5t-0.5 -10.5v-228zM178 161v-16q1 -18 7 -28q12 -28 54 -28q26 0 42 12q22 17 22 69v232z" />
    <glyph glyph-name="Ugrave" unicode="&#xd9;" horiz-adv-x="479" 
d="M49 706h130v-525q2 -44 7 -55q13 -30 54 -30q23 0 38 11q5 3 8.5 7t5.5 8t4 10t2.5 9.5t1 10.5t0.5 10v10.5v9.5v524h131v-547q-1 -27 -3 -41.5t-9 -34.5t-20 -37q-47 -61 -163 -61q-96 0 -144 51q-19 19 -30 48q-11 27 -13 78v544zM84 895h154l66 -133h-86z" />
    <glyph glyph-name="Uacute" unicode="&#xda;" horiz-adv-x="479" 
d="M49 706h130v-525q2 -44 7 -55q13 -30 54 -30q23 0 38 11q5 3 8.5 7t5.5 8t4 10t2.5 9.5t1 10.5t0.5 10v10.5v9.5v524h131v-547q-1 -27 -3 -41.5t-9 -34.5t-20 -37q-47 -61 -163 -61q-96 0 -144 51q-19 19 -30 48q-11 27 -13 78v544zM241 897h155l-126 -134h-93z" />
    <glyph glyph-name="Ucircumflex" unicode="&#xdb;" horiz-adv-x="479" 
d="M49 706h130v-525q2 -44 7 -55q13 -30 54 -30q23 0 38 11q5 3 8.5 7t5.5 8t4 10t2.5 9.5t1 10.5t0.5 10v10.5v9.5v524h131v-547q-1 -27 -3 -41.5t-9 -34.5t-20 -37q-47 -61 -163 -61q-96 0 -144 51q-19 19 -30 48q-11 27 -13 78v544zM173 895h129l86 -133h-104l-44 73
l-48 -73h-105z" />
    <glyph glyph-name="Udieresis" unicode="&#xdc;" horiz-adv-x="479" 
d="M84 883h117v-121h-117v121zM286 883h116v-121h-116v121zM49 706h130v-525q3 -51 10 -63q14 -22 53 -22q22 0 37 11q5 4 8.5 8t6 10t4 10t2 12.5t0.5 11v12.5v11v524h131v-547q-1 -27 -3 -41.5t-9 -34.5t-20 -37q-47 -61 -163 -61q-96 0 -144 51q-19 19 -30 48
q-11 27 -13 78v544z" />
    <glyph glyph-name="germandbls" unicode="&#xdf;" horiz-adv-x="417" 
d="M44 0v589q0 59 23 86q36 46 132 46q29 0 43 -2q84 -10 108 -66q10 -25 10 -60v-65q-2 -54 -12 -70t-59 -25q20 -3 28 -5t23 -7.5t23.5 -15t12.5 -24.5q5 -18 5 -70v-195q0 -34 -6 -53q-21 -72 -117 -72q-25 0 -68 9l1 69q20 -2 30 -2q9 1 15.5 3.5t11 5.5t8 8.5t5 9.5
t2 10.5t0.5 9.5v8v5v183q-1 40 -12 52q-10 12 -47 16h-18v81h14q22 0 30 3q4 1 7 3t5.5 5t4 5t3 6t2 6t1 7t0.5 6.5t0.5 7t0.5 6.5v73q-2 35 -20 44q-10 5 -25 5q-34 0 -42 -19q-4 -8 -4 -26v-591h-119z" />
    <glyph glyph-name="agrave" unicode="&#xe0;" 
d="M42 354v58q4 49 29 73q38 38 129 38q105 0 140 -64q12 -21 12 -49v-285q0 -95 15 -116q1 -4 8 -9h-125q-11 13 -14 45q-2 -2 -8 -9t-10 -10q-37 -37 -85 -37q-37 0 -62 19q-18 13 -27.5 38t-10.5 42.5t-1 48.5v8v7q0 70 24 98q11 13 54 38l124 62v30q1 42 -16 54
q-12 7 -26 7q-28 0 -37 -20q-4 -9 -4 -48v-19h-109zM233 258l-58 -38q-8 -6 -10 -8q-17 -16 -17 -74q0 -31 6 -45t23 -14q17 1 43 18l13 11v150zM43 706h153l66 -132h-86z" />
    <glyph glyph-name="aacute" unicode="&#xe1;" 
d="M42 354v58q4 49 29 73q38 38 129 38q105 0 140 -64q12 -21 12 -49v-285q0 -95 15 -116q1 -4 8 -9h-125q-11 13 -14 45q-2 -2 -8 -9t-10 -10q-37 -37 -85 -37q-37 0 -62 19q-18 13 -27.5 38t-10.5 42.5t-1 48.5v8v7q0 70 24 98q11 13 54 38l124 62v30q1 42 -16 54
q-12 7 -26 7q-28 0 -37 -20q-4 -9 -4 -48v-19h-109zM233 258l-58 -38q-8 -6 -10 -8q-17 -16 -17 -74q0 -31 6 -45t23 -14q17 1 43 18l13 11v150zM200 725h156q-65 -68 -67 -70q-22 -22 -60 -64l-94 -1z" />
    <glyph glyph-name="acircumflex" unicode="&#xe2;" 
d="M42 354v58q4 49 29 73q38 38 129 38q105 0 140 -64q12 -21 12 -49v-285q0 -95 15 -116q1 -4 8 -9h-125q-11 13 -14 45q-2 -2 -8 -9t-10 -10q-37 -37 -85 -37q-37 0 -62 19q-18 13 -27.5 38t-10.5 42.5t-1 48.5v8v7q0 70 24 98q11 13 54 38l124 62v30q1 42 -16 54
q-12 7 -26 7q-28 0 -37 -20q-4 -9 -4 -48v-19h-109zM233 258l-58 -38q-8 -6 -10 -8q-17 -16 -17 -74q0 -31 6 -45t23 -14q17 1 43 18l13 11v150zM132 706h129l86 -132h-105l-44 73l-48 -73h-104z" />
    <glyph glyph-name="atilde" unicode="&#xe3;" 
d="M42 354v58q4 49 29 73q38 38 129 38q105 0 140 -64q12 -21 12 -49v-285q0 -95 15 -116q1 -4 8 -9h-125q-11 13 -14 45q-2 -2 -8 -9t-10 -10q-37 -37 -85 -37q-37 0 -62 19q-18 13 -27.5 38t-10.5 42.5t-1 48.5v8v7q0 70 24 98q11 13 54 38l124 62v30q1 42 -16 54
q-12 7 -26 7q-28 0 -37 -20q-4 -9 -4 -48v-19h-109zM233 258l-58 -38q-8 -6 -10 -8q-17 -16 -17 -74q0 -31 6 -45t23 -14q17 1 43 18l13 11v150zM303 698l64 -1q-1 -28 -2.5 -43.5t-10.5 -37t-27 -32.5q-21 -14 -45 -14q-30 1 -89 28q-36 17 -49 17q-34 -1 -44 -41h-65
q2 37 9 61.5t29 43.5q25 21 60 21q31 0 84 -25q43 -19 54 -19q5 0 13 4q14 7 19 38z" />
    <glyph glyph-name="adieresis" unicode="&#xe4;" 
d="M45 715h117v-120h-117v120zM247 715h116v-120h-116v120zM42 354v58q4 49 29 73q38 38 129 38q105 0 140 -64q12 -21 12 -49v-285q0 -95 15 -116q1 -4 8 -9h-125q-11 13 -14 45q-2 -2 -8 -9t-10 -10q-37 -37 -85 -37q-37 0 -62 19q-18 13 -27.5 38t-10.5 42.5t-1 48.5v8v7
q0 70 24 98q11 13 54 38l124 62v30q1 42 -16 54q-12 7 -26 7q-28 0 -37 -20q-4 -9 -4 -48v-19h-109zM233 258l-58 -38q-8 -6 -10 -8q-17 -16 -17 -74q0 -31 6 -45t23 -14q17 1 43 18l13 11v150z" />
    <glyph glyph-name="aring" unicode="&#xe5;" 
d="M203 751q37 0 63 -26t26 -64q0 -36 -26.5 -62t-63.5 -27q-37 1 -63 27t-26 63t26.5 63t63.5 26zM202 701q-17 0 -29 -12t-12 -29t12.5 -29t29.5 -12q16 0 28 12t12 29q0 18 -12 29.5t-29 11.5zM42 354v58q4 49 29 73q38 38 129 38q105 0 140 -64q12 -21 12 -49v-285
q0 -95 15 -116q1 -4 8 -9h-125q-11 13 -14 45q-2 -2 -8 -9t-10 -10q-37 -37 -85 -37q-37 0 -62 19q-18 13 -27.5 38t-10.5 42.5t-1 48.5v8v7q0 70 24 98q11 13 54 38l124 62v30q1 42 -16 54q-12 7 -26 7q-28 0 -37 -20q-4 -9 -4 -48v-19h-109zM233 258l-58 -38q-8 -6 -10 -8
q-17 -16 -17 -74q0 -31 6 -45t23 -14q17 1 43 18l13 11v150z" />
    <glyph glyph-name="ae" unicode="&#xe6;" horiz-adv-x="604" 
d="M570 383v-154h-212v-91q0 -22 1 -26q9 -30 45 -30q28 0 38 17q5 8 8 38v33h119v-47q-4 -39 -14.5 -63.5t-37.5 -43.5q-44 -27 -108 -27q-38 0 -63 9t-61 32q-67 -40 -128 -40q-11 0 -22.5 1.5t-34 7.5t-39.5 22.5t-24 41.5q-6 25 -6 94q0 57 17 82q4 6 10.5 12.5
t13.5 11.5t14 9.5t14 8t11.5 6t8.5 4.5l5 2l114 47v43q-2 29 -17 39q-11 8 -27 8q-43 0 -46 -48v-2v-31h-107v56q4 55 29 80q37 37 110 37q46 0 85 -14q23 -9 35 -15q8 4 22 12q39 17 95 17q13 0 28.5 -2.5t39 -10t44 -27t30.5 -47.5q4 -12 10 -52zM358 309h91v64
q2 35 -17 48q-13 8 -28 8q-34 -4 -42 -25q-4 -11 -4 -28v-67zM238 108v143q-38 -16 -48 -22q-8 -5 -15 -10t-11.5 -10.5t-8 -10t-5.5 -11.5t-3.5 -10.5t-2 -11t-0.5 -9.5v-9.5v-8.5q0 -57 43 -57q29 0 51 27z" />
    <glyph glyph-name="ccedilla" unicode="&#xe7;" 
d="M250 318v62q0 13 -2 25q-9 33 -43 32q-16 0 -28 -7q-20 -13 -21 -62v-223q0 -26 3 -35q9 -32 44 -32q14 0 26 7q20 14 20 59v59h118v-58q0 -67 -29 -103q-41 -52 -133 -52t-136 48q-16 21 -21 36q-8 19 -10 65v227q4 68 28 98q44 58 139 58q12 0 25.5 -1.5t41 -7.5
t51 -23.5t34.5 -44.5q9 -22 10 -66v-61h-117zM169 26h43l1 -79q66 0 91 -28q14 -17 14 -40q0 -34 -29 -54q-29 -18 -86 -18q-10 0 -24 1t-24 2t-11 1q-8 2 -26 6l1 30q42 -6 62 0q23 7 23 27q0 12 -9 19t-15.5 8.5t-10.5 1.5v123z" />
    <glyph glyph-name="egrave" unicode="&#xe8;" 
d="M243 169h115v-41q0 -29 -5 -46q-26 -92 -152 -92t-154 98q-9 28 -9 67v216q0 1 0.5 10t1.5 17.5t4 20.5t7 21q17 42 59 62t92 20q56 0 93 -22.5t51 -50.5q10 -20 14 -73v-146h-203v-84q0 -25 3 -34q9 -29 41 -29q29 0 38 28l3 18zM157 314h85v63q0 51 -41 51
q-15 0 -24.5 -5.5t-13.5 -16.5t-4.5 -15t-1.5 -14v-63zM43 706h153l66 -132h-86z" />
    <glyph glyph-name="eacute" unicode="&#xe9;" 
d="M243 169h115v-41q0 -29 -5 -46q-26 -92 -152 -92t-154 98q-9 28 -9 67v216q0 1 0.5 10t1.5 17.5t4 20.5t7 21q17 42 59 62t92 20q56 0 93 -22.5t51 -50.5q10 -20 14 -73v-146h-203v-84q0 -25 3 -34q9 -29 41 -29q29 0 38 28l3 18zM157 314h85v63q0 51 -41 51
q-15 0 -24.5 -5.5t-13.5 -16.5t-4.5 -15t-1.5 -14v-63zM200 725h156q-65 -68 -67 -70q-22 -22 -60 -64l-94 -1z" />
    <glyph glyph-name="ecircumflex" unicode="&#xea;" 
d="M243 169h115v-41q0 -29 -5 -46q-26 -92 -152 -92t-154 98q-9 28 -9 67v216q0 1 0.5 10t1.5 17.5t4 20.5t7 21q17 42 59 62t92 20q56 0 93 -22.5t51 -50.5q10 -20 14 -73v-146h-203v-84q0 -25 3 -34q9 -29 41 -29q29 0 38 28l3 18zM157 314h85v63q0 51 -41 51
q-15 0 -24.5 -5.5t-13.5 -16.5t-4.5 -15t-1.5 -14v-63zM132 706h129l86 -132h-105l-44 73l-48 -73h-104z" />
    <glyph glyph-name="edieresis" unicode="&#xeb;" 
d="M243 169h115v-41q0 -29 -5 -46q-26 -92 -152 -92t-154 98q-9 28 -9 67v216q0 1 0.5 10t1.5 17.5t4 20.5t7 21q17 42 59 62t92 20q56 0 93 -22.5t51 -50.5q10 -20 14 -73v-146h-203v-84q0 -25 3 -34q9 -29 41 -29q29 0 38 28l3 18zM157 314h85v63q0 51 -41 51
q-15 0 -24.5 -5.5t-13.5 -16.5t-4.5 -15t-1.5 -14v-63zM45 726h119v-125h-120zM228 726h120v-124h-120v124z" />
    <glyph glyph-name="igrave" unicode="&#xec;" horiz-adv-x="208" 
d="M44 512h120v-512h-120v512zM-51 706h153l67 -132h-87z" />
    <glyph glyph-name="iacute" unicode="&#xed;" horiz-adv-x="208" 
d="M44 512h120v-512h-120v512zM106 725h156q-23 -24 -67 -70q-12 -12 -33 -34.5t-27 -29.5l-94 -1z" />
    <glyph glyph-name="icircumflex" unicode="&#xee;" horiz-adv-x="208" 
d="M44 512h120v-512h-120v512zM38 706h129l86 -132h-105l-44 73l-48 -73h-104z" />
    <glyph glyph-name="idieresis" unicode="&#xef;" horiz-adv-x="208" 
d="M44 512h120v-512h-120v512zM-48 726h118v-125h-120zM134 726h120v-124h-120v124z" />
    <glyph glyph-name="ntilde" unicode="&#xf1;" horiz-adv-x="417" 
d="M44 512h121l-1 -37q26 25 48 36t54 11q37 0 65.5 -18.5t37.5 -53.5q3 -12 4 -50v-400h-118v377q-1 27 -4 37.5t-14 17.5q-8 6 -23 6q-51 0 -51 -69v-369h-119v512zM314 698l64 -1q-1 -27 -2.5 -43t-11 -37.5t-26.5 -32.5q-21 -14 -45 -14q-28 1 -90 28q-36 17 -49 17
q-6 0 -11.5 -1.5t-9 -4t-7 -6t-5.5 -6.5t-4.5 -7t-3 -6l-1.5 -6l-2 -4h-65q2 37 9.5 61.5t29.5 43.5q24 21 59 21q31 0 84 -25q45 -19 54 -19q6 0 14 4q12 7 19 38z" />
    <glyph glyph-name="ograve" unicode="&#xf2;" 
d="M358 379v-247q-3 -60 -29 -90q-43 -52 -136 -52q-29 0 -51 5q-73 15 -95 81q-8 22 -9 69v229q1 41 10 65q31 83 152 83q114 0 146 -75q9 -21 12 -68zM240 126v260q-1 45 -19 56q-8 6 -22 6q-15 0 -24 -7q-5 -3 -8 -7.5t-5 -8t-3 -10t-1 -9t-0.5 -11t-0.5 -10.5v-260l1 -5
q0 -6 0.5 -9.5t2 -10t4 -10.5t7 -8.5t11 -7t15.5 -2.5q42 0 42 54zM43 706h153l66 -132h-86z" />
    <glyph glyph-name="oacute" unicode="&#xf3;" 
d="M358 379v-247q-3 -60 -29 -90q-43 -52 -136 -52q-29 0 -51 5q-73 15 -95 81q-8 22 -9 69v229q1 41 10 65q31 83 152 83q114 0 146 -75q9 -21 12 -68zM240 126v260q-1 45 -19 56q-8 6 -22 6q-15 0 -24 -7q-5 -3 -8 -7.5t-5 -8t-3 -10t-1 -9t-0.5 -11t-0.5 -10.5v-260l1 -5
q0 -6 0.5 -9.5t2 -10t4 -10.5t7 -8.5t11 -7t15.5 -2.5q42 0 42 54zM200 725h156q-65 -68 -67 -70q-22 -22 -60 -64l-94 -1z" />
    <glyph glyph-name="ocircumflex" unicode="&#xf4;" 
d="M358 379v-247q-3 -60 -29 -90q-43 -52 -136 -52q-29 0 -51 5q-73 15 -95 81q-8 22 -9 69v229q1 41 10 65q31 83 152 83q114 0 146 -75q9 -21 12 -68zM240 126v260q-1 45 -19 56q-8 6 -22 6q-15 0 -24 -7q-5 -3 -8 -7.5t-5 -8t-3 -10t-1 -9t-0.5 -11t-0.5 -10.5v-260l1 -5
q0 -6 0.5 -9.5t2 -10t4 -10.5t7 -8.5t11 -7t15.5 -2.5q42 0 42 54zM132 706h129l86 -132h-105l-44 73l-48 -73h-104z" />
    <glyph glyph-name="otilde" unicode="&#xf5;" 
d="M358 379v-247q-3 -60 -29 -90q-43 -52 -136 -52q-29 0 -51 5q-73 15 -95 81q-8 22 -9 69v229q1 41 10 65q31 83 152 83q114 0 146 -75q9 -21 12 -68zM240 126v260q-1 45 -19 56q-8 6 -22 6q-15 0 -24 -7q-5 -3 -8 -7.5t-5 -8t-3 -10t-1 -9t-0.5 -11t-0.5 -10.5v-260l1 -5
q0 -6 0.5 -9.5t2 -10t4 -10.5t7 -8.5t11 -7t15.5 -2.5q42 0 42 54zM303 698l64 -1q-1 -28 -2.5 -43.5t-10.5 -37t-27 -32.5q-21 -14 -45 -14q-30 1 -89 28q-36 17 -49 17q-34 -1 -44 -41h-65q2 37 9 61.5t29 43.5q25 21 60 21q31 0 84 -25q43 -19 54 -19q5 0 13 4
q14 7 19 38z" />
    <glyph glyph-name="odieresis" unicode="&#xf6;" 
d="M42 715h117v-120h-117v120zM243 715h116v-120h-116v120zM358 379v-247q-3 -60 -29 -90q-43 -52 -136 -52q-29 0 -51 5q-73 15 -95 81q-8 22 -9 69v229q1 41 10 65q31 83 152 83q114 0 146 -75q9 -21 12 -68zM240 126v260q-1 45 -19 56q-8 6 -22 6q-15 0 -24 -7
q-5 -3 -8 -7.5t-5 -8t-3 -10t-1 -9t-0.5 -11t-0.5 -10.5v-260l1 -5q0 -6 0.5 -9.5t2 -10t4 -10.5t7 -8.5t11 -7t15.5 -2.5q42 0 42 54z" />
    <glyph glyph-name="divide" unicode="&#xf7;" horiz-adv-x="500" 
d="M308 145q-1 -24 -17.5 -39.5t-40.5 -15.5q-23 0 -39.5 16.5t-15.5 38.5q0 24 16.5 40.5t39.5 16.5q25 -1 41 -17t16 -40zM308 434q0 -18 -14 -36.5t-43 -18.5q-24 1 -40 16.5t-16 38.5q0 16 7 29q16 29 50 29q24 -1 40 -17t16 -41zM500 251h-500v79h500v-79z" />
    <glyph glyph-name="oslash" unicode="&#xf8;" 
d="M338 527l41 -26l-36 -52q0 -1 1.5 -3t2.5 -4q8 -16 10 -67v-243q0 -64 -39 -102q-40 -40 -116 -40q-41 0 -66 8.5t-59 33.5l-28 -41l-40 25l36 57q-7 19 -6 59v247q0 73 42 107q42 36 117 36q59 0 115 -33zM147 232l101 156l-1 10q-1 9 -2 11q-8 31 -45 31q-18 0 -30 -8
q-19 -12 -23 -53v-147zM146 141v-14q2 -30 19 -41q10 -8 30 -8q35 0 46 25q5 10 5 31v165z" />
    <glyph glyph-name="ugrave" unicode="&#xf9;" horiz-adv-x="417" 
d="M44 512h120v-368q-2 -36 11 -49t32 -13q18 0 30 10q16 14 16 58v362h120v-512h-120v42q-55 -51 -109 -51q-33 0 -60 18q-19 13 -28.5 35t-10.5 37t-1 45v386zM53 706h153l67 -132h-87z" />
    <glyph glyph-name="uacute" unicode="&#xfa;" horiz-adv-x="417" 
d="M44 512h120v-368q-2 -36 11 -49t32 -13q18 0 30 10q16 14 16 58v362h120v-512h-120v42q-55 -51 -109 -51q-33 0 -60 18q-19 13 -28.5 35t-10.5 37t-1 45v386zM210 725h156q-23 -24 -67 -70q-12 -12 -33 -34.5t-27 -29.5l-94 -1z" />
    <glyph glyph-name="ucircumflex" unicode="&#xfb;" horiz-adv-x="417" 
d="M44 512h120v-368q-2 -36 11 -49t32 -13q18 0 30 10q16 14 16 58v362h120v-512h-120v42q-55 -51 -109 -51q-33 0 -60 18q-19 13 -28.5 35t-10.5 37t-1 45v386zM142 706h129l86 -132h-105l-44 73l-48 -73h-104z" />
    <glyph glyph-name="udieresis" unicode="&#xfc;" horiz-adv-x="417" 
d="M52 715h117v-120h-117v120zM254 715h116v-120h-116v120zM44 512h120v-368q0 -62 42 -61q10 0 18 3t12.5 7t8.5 10t5.5 11t2 11.5t0.5 10.5v9v5v363h120v-513h-120l-1 47q-3 -3 -8.5 -9t-8.5 -9q-42 -38 -93 -38q-37 0 -61 20q-18 14 -26.5 35.5t-9.5 36t-1 43.5v386z" />
    <glyph glyph-name="ydieresis" unicode="&#xff;" horiz-adv-x="354" 
d="M1 512h118l66 -329l51 329h117l-117 -549q-17 -76 -39 -103q-31 -37 -104 -37q-23 0 -77 9l18 94q28 -7 45 -7q19 0 31 12t15 22t8 33l1 14zM25 726h118v-125h-120zM207 726h120v-124h-120v124z" />
    <glyph glyph-name="dotlessi" unicode="&#x131;" horiz-adv-x="208" 
d="M44 512h120v-512h-120v512z" />
    <glyph glyph-name="OE" unicode="&#x152;" horiz-adv-x="688" 
d="M359 706h297v-109h-223v-165h211v-104h-211v-217h231v-111h-305l-1 31q-16 -14 -31 -22q-40 -24 -107 -24q-16 0 -32.5 2.5t-46 10.5t-53.5 30.5t-35 56.5q-6 21 -9 73v366q0 26 1 39q5 100 80 137q42 21 96 21q66 0 111 -31q10 -7 27 -24v40zM175 530v-366q0 -19 3 -31
q15 -44 61 -44q25 2 39 12q12 9 17.5 22t6 21.5t0.5 26.5v360q-1 50 -12 66q-15 23 -52 23q-36 0 -51 -25q-12 -19 -12 -65z" />
    <glyph glyph-name="oe" unicode="&#x153;" horiz-adv-x="604" 
d="M451 172h115v-42q0 -36 -6 -58q-24 -83 -143 -83q-64 0 -118 34q-53 -33 -113 -33q-48 0 -85.5 21.5t-53.5 65.5q-8 25 -9 67v219q1 44 8 64q14 46 55.5 70.5t91.5 24.5q54 0 107 -38q65 38 120 38q45 0 82.5 -22t53.5 -62q9 -20 10 -65v-143h-203v-94q2 -37 18 -47
q11 -8 28 -8q14 0 23 6q18 12 18 48zM362 310h87v68q0 37 -20 49q-7 7 -23 7q-11 0 -22 -6q-20 -11 -22 -49v-69zM244 130v248q-1 37 -17 47q-10 7 -24 7q-15 0 -24 -6q-20 -13 -20 -48v-251q0 -14 2 -20q8 -29 38 -29q11 0 23 6q20 11 22 46z" />
    <glyph glyph-name="Ydieresis" unicode="&#x178;" horiz-adv-x="417" 
d="M1 706h137l72 -356l69 356h137l-141 -497v-209h-133v218zM52 883h117v-121h-117v121zM253 883h116v-121h-116v121z" />
    <glyph glyph-name="circumflex" unicode="&#x2c6;" horiz-adv-x="250" 
d="M-14 706h129l86 -132h-105l-44 73l-48 -73h-104z" />
    <glyph glyph-name="caron" unicode="&#x2c7;" horiz-adv-x="250" 
d="M-100 706h105l45 -73l48 73h104l-85 -132h-132z" />
    <glyph glyph-name="tilde" unicode="&#x2dc;" horiz-adv-x="250" 
d="M157 698l64 -1q-1 -28 -2.5 -43.5t-10.5 -37t-26 -32.5q-21 -14 -46 -14q-30 1 -89 28q-36 17 -49 17q-6 0 -11.5 -1.5t-9 -4t-7 -6t-5.5 -6.5t-4.5 -7t-3 -6l-1.5 -6l-2 -4h-65q2 37 9.5 61.5t29.5 43.5q24 21 59 21q31 0 84 -25q43 -19 54 -19q5 0 13 4q14 7 19 38z
" />
    <glyph glyph-name="endash" unicode="&#x2013;" 
d="M28 316h340v-99h-340v99z" />
    <glyph glyph-name="emdash" unicode="&#x2014;" horiz-adv-x="500" 
d="M500 252h-500v81h500v-81z" />
    <glyph glyph-name="quoteleft" unicode="&#x2018;" horiz-adv-x="187" 
d="M34 438v134l75 134h43l-61 -134h61v-134h-118z" />
    <glyph glyph-name="quoteright" unicode="&#x2019;" horiz-adv-x="187" 
d="M32 706h118v-133l-80 -135h-46l70 135h-62v133z" />
    <glyph glyph-name="quotesinglbase" unicode="&#x201a;" horiz-adv-x="187" 
d="M36 129h117v-129l-83 -135h-44l68 135h-58v129z" />
    <glyph glyph-name="quotedblleft" unicode="&#x201c;" horiz-adv-x="375" 
d="M336 440h-120v130l80 136h47l-68 -136h61v-130zM152 440h-118v130l83 136h46l-73 -136h62v-130z" />
    <glyph glyph-name="quotedblright" unicode="&#x201d;" horiz-adv-x="375" 
d="M36 706h121v-130l-80 -136h-47l68 136h-62v130zM221 706h118v-130l-84 -136h-46l74 136h-62v130z" />
    <glyph glyph-name="quotedblbase" unicode="&#x201e;" horiz-adv-x="375" 
d="M38 130h117v-130l-69 -137h-43l58 137h-63v130zM219 130h118v-130l-73 -137h-45l64 137h-64v130z" />
    <glyph glyph-name="dagger" unicode="&#x2020;" horiz-adv-x="437" 
d="M23 536h136v170h119v-170h139v-113h-139v-423h-119v423h-136v113z" />
    <glyph glyph-name="bullet" unicode="&#x2022;" horiz-adv-x="333" 
d="M297 353q0 -56 -36.5 -93t-92.5 -37q-28 0 -54 11q-37 16 -57 48.5t-20 70.5q0 26 9 48q12 30 43 56t80 26q22 0 45 -8q27 -10 45 -27t25.5 -36.5t10 -33t2.5 -25.5z" />
    <glyph glyph-name="ellipsis" unicode="&#x2026;" horiz-adv-x="1000" 
d="M890 51q0 -24 -16 -40.5t-40 -16.5t-40.5 16.5t-16.5 40.5t17 40t40 16q24 0 40 -16t16 -40zM557 51q0 -11 -5 -25q-16 -32 -51 -32q-24 0 -40.5 16t-16.5 41q0 24 17 40t41 16q23 0 38.5 -16t16.5 -40zM223 51q0 -35 -29 -50q-14 -7 -27 -7q-24 0 -40.5 16.5t-16.5 40.5
t17 40t42 16q23 0 39 -16.5t15 -39.5z" />
    <glyph glyph-name="fraction" unicode="&#x2044;" horiz-adv-x="125" 
d="M166 732l59 -20l-266 -739l-58 19z" />
    <glyph glyph-name="trademark" unicode="&#x2122;" horiz-adv-x="687" 
d="M636 374h-57l2 206l3 67l-17 -56l-67 -217h-51l-68 217l-17 55l4 -66l3 -206h-57v332h79l83 -262l81 262h79v-332zM182 374h-59v283h-107v49h270v-49h-104v-283z" />
    <glyph glyph-name="minus" unicode="&#x2212;" horiz-adv-x="500" 
d="M500 252h-500v81h500v-81z" />
    <glyph glyph-name="Acute" unicode="&#xf6c9;" horiz-adv-x="250" 
d="M53 897h156l-127 -134h-93z" />
    <glyph glyph-name="Caron" unicode="&#xf6ca;" horiz-adv-x="250" 
d="M-100 895h105l45 -74l48 74h104l-85 -133h-132z" />
    <glyph glyph-name="Dieresis" unicode="&#xf6cb;" horiz-adv-x="250" 
d="M-104 883h116v-121h-116v121zM97 883h116v-121h-116v121z" />
    <glyph glyph-name="Grave" unicode="&#xf6ce;" horiz-adv-x="250" 
d="M-103 895h153l67 -133h-87z" />
    <glyph glyph-name="onefitted" unicode="&#xf6dc;" horiz-adv-x="333" 
d="M156 665h78v-665h-117v507q-10 -8 -16 -12q-28 -19 -84 -29v92q18 5 23 7q47 20 79 52q15 15 37 48z" />
    <glyph glyph-name="fi" unicode="&#xfb01;" horiz-adv-x="458" 
d="M183 512h53v-79h-54v-433h-118v433h-53v79h53v90l3 24q5 35 30 57q29 25 99 25q16 0 44 -2v-98q-27 3 -35 1q-22 -5 -22 -34v-63zM294 706h120v-120h-120v120zM294 512h120v-512h-120v512z" />
    <glyph glyph-name="fl" unicode="&#xfb02;" horiz-adv-x="458" 
d="M183 512h53v-79h-54v-433h-118v433h-53v79h53v90l3 24q5 35 30 57q29 25 99 25q16 0 44 -2v-98q-27 3 -35 1q-22 -5 -22 -34v-63zM294 706h120v-706h-120v706z" />
    <glyph glyph-name="Circumflex" horiz-adv-x="250" 
d="M-14 895h129l86 -133h-105l-44 73l-48 -73h-104z" />
    <glyph glyph-name="Tilde" horiz-adv-x="250" 
d="M157 886h64q-1 -28 -2.5 -43.5t-10.5 -37.5t-26 -33q-20 -13 -46 -13q-30 0 -89 27q-32 17 -49 17q-6 0 -11.5 -1.5t-9 -3.5t-7 -6t-5.5 -6.5t-4.5 -7t-3 -6.5l-1.5 -6l-2 -4l-65 1q2 37 9.5 61t29.5 43q24 21 59 21q31 0 84 -24q40 -19 54 -19q7 0 13 3q13 7 19 38z" />
    </font>
</defs>
</svg>
